<?xml version="1.0" standalone="no"?>
<!DOCTYPE svg PUBLIC "-//W3C//DTD SVG 20010904//EN"
 "http://www.w3.org/TR/2001/REC-SVG-20010904/DTD/svg10.dtd">
<svg version="1.0" xmlns="http://www.w3.org/2000/svg"
 width="1000.000000pt" height="1000.000000pt" viewBox="0 0 1000.000000 1000.000000"
 preserveAspectRatio="xMidYMid meet">

<g transform="translate(0.000000,1000.000000) scale(0.100000,-0.100000)"
fill="#000000" stroke="none">
<path d="M1597 5900 c-59 -47 -56 -143 7 -181 91 -55 199 26 166 126 -16 48
-53 75 -105 75 -27 0 -51 -7 -68 -20z"/>
<path d="M1560 5000 l0 -630 105 0 105 0 0 630 0 630 -105 0 -105 0 0 -630z"/>
<path d="M2475 5624 c-11 -2 -45 -9 -75 -15 -168 -33 -342 -170 -418 -330 -51
-107 -66 -172 -66 -284 1 -172 59 -311 184 -436 58 -59 94 -85 160 -118 134
-65 176 -71 568 -71 l342 0 0 340 0 340 -310 0 -310 0 0 -105 0 -105 205 0
206 0 -3 -127 -3 -128 -214 -3 c-118 -1 -239 2 -270 8 -130 24 -247 114 -308
238 -26 52 -28 66 -28 172 0 107 2 119 29 175 38 77 125 164 198 198 85 40
178 48 511 45 l297 -3 0 108 0 107 -337 -1 c-186 -1 -347 -3 -358 -5z"/>
<path d="M3864 5621 c-252 -40 -456 -227 -519 -476 -19 -76 -19 -212 0 -294
50 -210 225 -393 440 -457 82 -25 258 -25 339 0 222 67 390 241 441 459 19 80
19 215 0 296 -48 201 -217 383 -414 445 -86 27 -210 39 -287 27z m260 -244
c76 -35 130 -81 175 -148 110 -165 89 -383 -51 -522 -223 -223 -595 -128 -689
174 -37 117 -16 251 56 354 111 162 331 223 509 142z"/>
<path d="M5239 5620 c-232 -37 -430 -209 -502 -435 -30 -94 -31 -282 -3 -365
34 -102 88 -191 156 -259 76 -76 148 -122 252 -159 62 -22 90 -26 188 -26 131
0 194 14 301 70 135 71 252 209 300 355 21 63 24 92 24 204 -1 109 -5 140 -24
195 -47 134 -130 241 -247 319 -126 85 -300 124 -445 101z m211 -222 c115 -35
207 -113 261 -223 32 -66 34 -75 34 -175 0 -94 -3 -111 -28 -164 -138 -296
-524 -341 -713 -83 -155 210 -84 502 151 618 92 45 201 55 295 27z"/>
<path d="M5920 5627 c0 -2 80 -161 178 -353 98 -192 242 -473 319 -625 l141
-276 262 516 c145 284 290 567 322 629 l60 112 -129 0 -128 0 -180 -356 c-99
-196 -188 -370 -199 -387 l-18 -31 -134 264 c-74 146 -162 320 -196 388 l-63
122 -117 0 c-65 0 -118 -1 -118 -3z"/>
<path d="M7444 5619 c-62 -14 -144 -69 -185 -123 -68 -90 -70 -108 -67 -517
l3 -364 28 -57 c33 -67 90 -121 166 -157 l56 -26 498 -3 497 -3 0 106 0 105
-465 0 c-514 0 -517 0 -555 62 -17 28 -20 50 -20 141 l0 107 410 0 410 0 0
105 0 105 -410 0 -410 0 0 110 c0 122 10 154 57 186 27 18 53 19 505 19 l478
0 0 108 0 107 -477 -1 c-263 -1 -496 -5 -519 -10z"/>
<path d="M4820 4050 c0 -67 4 -110 10 -110 6 0 10 43 10 110 0 67 -4 110 -10
110 -6 0 -10 -43 -10 -110z"/>
<path d="M1961 4136 c-32 -18 -50 -53 -51 -98 0 -75 87 -128 163 -99 24 9 27
16 27 56 l0 45 -37 -1 c-32 -2 -33 -3 -10 -6 26 -4 28 -8 25 -41 -3 -35 -5
-37 -42 -40 -22 -2 -50 2 -62 8 -39 22 -56 88 -33 132 21 40 99 55 136 26 7
-5 14 -5 17 1 18 28 -89 42 -133 17z"/>
<path d="M5290 4130 c0 -5 7 -10 15 -10 8 0 15 5 15 10 0 6 -7 10 -15 10 -8 0
-15 -4 -15 -10z"/>
<path d="M4010 4095 c0 -7 -8 -19 -17 -24 -17 -10 -17 -10 0 -11 14 0 17 -9
17 -55 0 -44 4 -56 20 -65 11 -6 26 -8 32 -4 7 5 4 10 -10 15 -19 7 -22 16
-22 59 0 45 2 50 23 51 l22 0 -22 9 c-13 5 -23 16 -23 25 0 8 -4 15 -10 15 -5
0 -10 -7 -10 -15z"/>
<path d="M2192 4070 c-52 -22 -48 -107 7 -130 75 -31 143 49 94 109 -21 24
-68 35 -101 21z m85 -36 c15 -24 15 -29 2 -53 -11 -20 -22 -26 -49 -26 -27 0
-38 6 -49 26 -13 24 -13 29 2 53 12 18 26 26 47 26 21 0 35 -8 47 -26z"/>
<path d="M2525 4055 c-14 -13 -25 -36 -25 -50 0 -31 41 -75 70 -75 26 0 60 17
60 31 0 6 -7 6 -19 -1 -28 -14 -57 -12 -75 6 -27 27 -18 34 44 34 53 0 60 2
60 20 0 28 -35 60 -65 60 -14 0 -37 -11 -50 -25z m83 -7 c25 -25 13 -38 -32
-38 -51 0 -64 11 -40 34 18 19 55 21 72 4z"/>
<path d="M2731 4071 c-8 -5 -20 -7 -28 -4 -10 4 -13 -10 -13 -61 0 -37 4 -66
10 -66 6 0 10 18 10 41 0 50 15 79 40 79 11 0 20 5 20 10 0 12 -20 13 -39 1z"/>
<path d="M2850 4070 c-8 -5 -22 -7 -30 -5 -13 4 -14 -6 -11 -63 l4 -67 8 48
c9 59 25 79 58 75 24 -3 26 -7 29 -60 4 -73 22 -76 22 -5 0 72 -35 106 -80 77z"/>
<path d="M3005 4067 c-16 -12 -13 -14 26 -13 34 1 44 -3 47 -16 3 -13 -3 -18
-22 -18 -46 0 -76 -18 -76 -44 0 -32 32 -50 68 -40 15 4 33 6 40 5 8 -1 12 15
12 53 0 45 -4 58 -22 70 -28 20 -48 20 -73 3z m75 -76 c0 -25 -24 -43 -52 -39
-32 4 -31 40 2 49 41 12 50 10 50 -10z"/>
<path d="M3201 4071 c-8 -5 -20 -7 -28 -4 -10 4 -13 -10 -13 -61 0 -37 4 -66
10 -66 6 0 10 22 10 49 0 54 15 74 52 69 21 -3 23 -9 26 -60 4 -73 22 -76 22
-4 0 73 -34 106 -79 77z"/>
<path d="M3355 4055 c-14 -13 -25 -35 -25 -47 0 -29 26 -68 46 -68 8 0 14 -9
14 -20 0 -12 7 -20 17 -20 21 0 6 -16 -22 -23 -13 -3 -9 -5 13 -6 26 -1 32 3
32 19 0 11 -7 20 -15 20 -8 0 -15 5 -15 10 0 6 6 10 13 10 7 0 22 7 33 15 17
13 16 14 -19 8 -28 -4 -42 -1 -57 12 -46 42 -8 102 57 92 35 -6 36 -5 19 8
-29 22 -64 18 -91 -10z"/>
<path d="M3515 4067 c-16 -12 -13 -14 26 -13 34 1 44 -3 47 -16 3 -13 -3 -18
-22 -18 -46 0 -76 -18 -76 -44 0 -32 32 -50 68 -40 15 4 33 6 40 5 8 -1 12 15
12 53 0 45 -4 58 -22 70 -28 20 -48 20 -73 3z m75 -76 c0 -25 -24 -43 -52 -39
-32 4 -31 40 2 49 41 12 50 10 50 -10z"/>
<path d="M3766 4059 c-57 -45 -13 -139 59 -125 33 7 52 22 42 33 -4 4 -13 1
-19 -5 -26 -26 -88 -8 -88 25 0 9 17 13 60 13 69 0 77 14 35 55 -30 30 -54 31
-89 4z m84 -14 c19 -22 3 -35 -46 -35 -45 0 -57 13 -32 38 17 17 63 15 78 -3z"/>
<path d="M4126 4059 c-57 -45 -13 -139 59 -125 33 7 52 22 42 33 -4 4 -13 1
-19 -5 -26 -26 -88 -8 -88 25 0 9 17 13 60 13 69 0 77 14 35 55 -30 30 -54 31
-89 4z m84 -14 c19 -22 3 -35 -46 -35 -45 0 -57 13 -32 38 17 17 63 15 78 -3z"/>
<path d="M4306 4059 c-36 -28 -36 -80 0 -108 31 -25 63 -27 90 -6 17 14 16 14
-23 9 -53 -8 -73 6 -73 51 0 42 21 59 65 52 38 -6 48 7 13 17 -36 9 -43 7 -72
-15z"/>
<path d="M4490 4070 c-8 -5 -22 -7 -30 -5 -13 4 -14 -6 -11 -63 l4 -67 8 48
c9 59 25 79 58 75 24 -3 26 -7 29 -60 4 -73 22 -76 22 -5 0 72 -35 106 -80 77z"/>
<path d="M4646 4059 c-52 -41 -19 -129 49 -129 38 0 75 37 75 75 0 38 -37 75
-75 75 -12 0 -34 -9 -49 -21z m92 -11 c7 -7 12 -26 12 -43 0 -38 -16 -55 -51
-55 -34 0 -59 24 -59 55 0 13 7 31 16 39 18 19 65 21 82 4z"/>
<path d="M4930 4067 c-83 -42 -17 -163 69 -127 58 24 61 103 5 129 -31 14 -43
14 -74 -2z m80 -22 c7 -8 13 -26 13 -40 0 -14 -6 -32 -13 -40 -28 -33 -100 -6
-100 38 0 47 71 77 100 42z"/>
<path d="M5124 4071 c-11 -5 -27 -23 -34 -41 -12 -28 -11 -34 7 -58 22 -30 69
-40 103 -22 17 9 20 8 20 -7 0 -10 -7 -29 -16 -42 -17 -23 -52 -26 -96 -6 -11
4 -18 3 -18 -3 0 -20 64 -33 99 -21 40 14 51 41 51 129 0 64 -1 68 -22 68 -13
0 -34 3 -48 6 -14 3 -34 1 -46 -3z m78 -28 c26 -23 23 -59 -7 -79 -33 -22 -73
-11 -86 23 -21 56 47 98 93 56z"/>
<path d="M5393 4073 c-24 -9 -13 -20 17 -15 29 4 60 -11 60 -29 0 -5 -15 -9
-33 -9 -36 0 -77 -24 -77 -44 0 -7 9 -21 21 -31 17 -16 25 -17 50 -8 17 7 36
10 42 7 19 -7 9 108 -11 124 -16 12 -46 15 -69 5z m72 -73 c3 -5 1 -19 -5 -30
-15 -29 -75 -25 -75 5 0 25 67 47 80 25z"/>
<path d="M2340 4066 c0 -19 55 -126 65 -126 12 0 69 120 60 128 -7 8 -11 2
-37 -58 l-24 -54 -23 57 c-13 31 -27 57 -32 57 -5 0 -9 -2 -9 -4z"/>
<path d="M5290 4005 c0 -37 4 -65 10 -65 6 0 10 28 10 65 0 37 -4 65 -10 65
-6 0 -10 -28 -10 -65z"/>
</g>
</svg>
